<?xml version="1.0" standalone="no"?>
<!DOCTYPE svg PUBLIC "-//W3C//DTD SVG 20010904//EN"
 "http://www.w3.org/TR/2001/REC-SVG-20010904/DTD/svg10.dtd">
<svg version="1.0" xmlns="http://www.w3.org/2000/svg"
 width="317.000000pt" height="317.000000pt" viewBox="0 0 317.000000 317.000000"
 preserveAspectRatio="xMidYMid meet">
<metadata>
Created by potrace 1.11, written by Peter Selinger 2001-2013
</metadata>
<g transform="translate(0.000000,317.000000) scale(0.100000,-0.100000)"
fill="#000000" stroke="none">
<path d="M1414 2950 c-3 -2 -17 -5 -32 -6 -15 -1 -40 -5 -57 -9 -16 -4 -40 -8
-52 -9 -13 0 -23 -5 -23 -9 0 -5 -9 -5 -20 -2 -12 4 -20 2 -20 -5 0 -7 -7 -10
-15 -7 -8 4 -17 2 -21 -4 -3 -6 -12 -8 -20 -5 -8 3 -14 1 -14 -5 0 -6 -7 -9
-15 -5 -8 3 -15 1 -15 -5 0 -6 -4 -7 -10 -4 -5 3 -10 1 -10 -4 0 -6 -7 -11
-15 -11 -8 0 -23 -4 -33 -9 -25 -14 -56 -24 -64 -23 -5 1 -8 -3 -8 -9 0 -5 -4
-7 -10 -4 -5 3 -10 1 -10 -6 0 -7 -3 -10 -6 -6 -3 3 -14 -3 -25 -14 -11 -11
-24 -17 -28 -14 -5 2 -12 -2 -15 -11 -4 -9 -13 -14 -22 -10 -8 3 -13 2 -10 -2
3 -4 -4 -14 -16 -21 -16 -10 -19 -10 -12 1 4 7 -7 -2 -24 -20 -19 -20 -36 -31
-43 -26 -8 4 -9 3 -5 -4 4 -7 2 -12 -3 -12 -6 0 -23 -13 -38 -30 -14 -16 -31
-30 -37 -30 -6 0 -20 -11 -30 -25 -10 -13 -24 -22 -30 -18 -6 3 -8 3 -4 -2 4
-4 -6 -20 -22 -35 -17 -16 -30 -33 -30 -38 0 -6 -11 -19 -25 -30 -14 -11 -25
-24 -25 -30 0 -6 -12 -20 -27 -32 -16 -12 -22 -18 -14 -14 9 5 7 -2 -5 -18
-10 -14 -22 -24 -26 -21 -4 2 -5 -3 -2 -11 4 -9 -1 -18 -10 -22 -9 -3 -13 -10
-11 -15 3 -4 -3 -17 -14 -28 -11 -11 -17 -22 -13 -25 3 -3 0 -6 -7 -6 -7 0
-10 -4 -6 -9 3 -5 -3 -17 -12 -27 -10 -10 -17 -19 -15 -21 7 -9 0 -23 -9 -18
-6 4 -10 1 -8 -6 3 -29 -1 -50 -11 -44 -6 3 -7 -1 -4 -9 3 -9 1 -16 -5 -16 -6
0 -8 -7 -5 -15 4 -8 1 -15 -6 -15 -6 0 -9 -4 -5 -9 3 -5 1 -12 -4 -16 -6 -3
-7 -13 -4 -22 4 -11 3 -14 -5 -9 -8 5 -10 2 -6 -9 4 -8 0 -23 -7 -32 -8 -9
-13 -18 -11 -20 1 -1 2 -4 1 -5 -3 -10 -10 -47 -13 -68 -2 -14 -5 -25 -6 -25
-4 0 -11 -80 -11 -112 1 -18 -2 -33 -7 -33 -9 0 -7 -137 3 -230 4 -36 8 -77 8
-92 1 -16 5 -28 9 -28 5 0 6 -11 4 -25 -3 -14 0 -25 6 -25 5 0 8 -6 5 -14 -3
-8 -3 -17 1 -20 3 -4 7 -13 9 -21 2 -8 4 -22 6 -30 2 -8 6 -17 9 -21 4 -3 4
-12 1 -20 -3 -8 0 -14 7 -14 6 0 9 -4 5 -9 -3 -5 0 -13 6 -16 5 -4 8 -14 5
-22 -3 -8 -1 -11 4 -8 9 5 15 -15 11 -38 0 -4 4 -7 10 -7 6 0 8 -7 5 -15 -3
-9 1 -18 9 -21 8 -4 15 -13 15 -22 0 -8 8 -24 17 -35 13 -15 14 -18 3 -12 -8
4 -5 -2 8 -14 12 -12 20 -26 17 -31 -3 -4 2 -11 11 -14 9 -4 14 -9 11 -12 -3
-3 3 -14 14 -25 11 -11 17 -25 13 -31 -4 -6 -3 -8 2 -5 6 3 16 -3 23 -15 10
-16 10 -19 -1 -13 -7 4 2 -5 20 -20 17 -14 32 -32 32 -40 0 -7 7 -16 16 -19 9
-3 12 -11 8 -18 -4 -7 -4 -10 1 -6 10 9 37 -11 30 -22 -3 -4 2 -13 10 -20 8
-7 15 -9 15 -5 0 4 7 2 15 -5 8 -7 12 -16 9 -21 -3 -5 0 -8 7 -7 7 2 13 -4 14
-12 0 -8 6 -15 13 -15 8 0 20 -9 28 -20 8 -11 18 -20 22 -20 4 0 6 -3 4 -8 -1
-4 2 -6 7 -5 5 2 17 -6 26 -17 9 -11 14 -13 10 -5 -4 8 3 4 14 -9 12 -13 21
-19 21 -15 0 5 10 -2 21 -16 11 -14 18 -18 14 -10 -4 8 1 6 9 -4 9 -11 16 -16
16 -10 0 5 6 2 13 -6 7 -8 19 -16 27 -18 8 -2 18 -10 23 -17 4 -8 14 -12 22
-9 8 4 15 1 15 -5 0 -6 7 -11 15 -11 8 0 15 -4 15 -10 0 -5 7 -7 15 -4 8 4 15
1 15 -6 0 -6 5 -8 10 -5 6 3 10 1 10 -5 0 -6 5 -8 10 -5 5 3 10 2 10 -4 0 -6
7 -8 15 -5 8 4 15 1 15 -6 0 -6 4 -9 9 -5 5 3 12 1 16 -5 4 -6 11 -8 16 -5 5
4 9 2 9 -4 0 -6 6 -8 14 -5 8 3 17 0 21 -5 3 -6 10 -9 15 -6 5 3 11 1 15 -4 3
-6 12 -8 20 -4 8 3 15 1 15 -5 0 -6 8 -9 18 -7 9 1 21 0 27 -3 5 -3 16 -7 25
-9 181 -30 285 -32 480 -9 14 2 32 6 40 9 8 3 22 5 30 6 22 0 43 5 58 14 6 5
17 5 22 2 6 -3 10 -1 10 6 0 6 8 9 20 6 10 -3 20 -1 22 4 3 9 36 19 66 21 6 1
12 5 12 9 0 5 7 5 17 2 12 -5 14 -3 8 7 -5 8 -3 11 6 8 8 -3 20 1 27 9 8 7 18
11 23 8 5 -4 9 -1 9 5 0 6 5 8 10 5 6 -3 10 -1 10 5 0 6 5 8 10 5 6 -3 10 -1
10 5 0 6 4 9 9 6 5 -4 11 -2 13 3 1 5 9 11 17 13 8 2 23 11 33 21 10 10 23 15
27 12 5 -2 12 2 15 11 3 8 10 13 15 10 5 -3 12 1 15 9 3 8 9 14 14 13 5 -2 19
8 31 22 13 14 19 18 16 10 -4 -8 5 0 20 18 14 17 32 32 38 32 7 0 21 11 31 25
10 13 23 22 29 18 5 -3 7 -1 4 4 -8 12 17 36 26 26 4 -3 7 1 7 10 0 10 3 17 8
17 4 0 15 14 24 31 10 17 22 27 28 24 6 -4 9 -1 8 7 -2 7 3 12 10 10 8 -1 11
2 7 7 -3 6 3 19 15 31 11 11 20 24 20 30 0 5 8 14 18 19 9 6 13 11 7 11 -5 0
1 10 15 21 14 11 19 17 11 13 -10 -5 -9 2 4 24 10 17 23 28 29 25 5 -4 7 1 3
10 -4 10 0 20 9 25 9 5 15 11 15 13 -3 10 24 69 31 69 4 0 5 7 2 15 -4 8 -1
15 6 15 6 0 9 4 6 9 -3 5 1 14 9 21 7 6 12 17 9 25 -3 7 0 16 5 20 6 3 9 11 6
16 -4 5 -2 9 4 9 6 0 8 7 5 15 -4 8 -2 15 3 15 5 0 10 8 11 18 3 31 7 47 15
60 5 6 5 17 2 22 -3 6 -3 15 1 22 4 7 9 21 10 32 2 12 6 37 9 56 9 49 12 341
4 346 -4 2 -8 19 -8 36 -2 48 -6 72 -14 85 -4 6 -4 18 -1 27 4 9 1 16 -6 16
-7 0 -10 7 -7 15 4 8 2 17 -4 21 -6 3 -8 12 -5 20 3 7 1 16 -5 19 -5 4 -7 11
-4 16 4 5 1 9 -5 9 -7 0 -10 7 -6 15 3 8 1 15 -5 15 -6 0 -9 7 -5 15 3 8 1 15
-5 15 -6 0 -7 5 -4 10 3 6 1 10 -5 10 -7 0 -10 7 -6 15 3 8 1 15 -5 15 -6 0
-7 5 -4 10 3 6 1 10 -5 10 -7 0 -9 7 -6 16 4 10 2 13 -6 8 -8 -5 -9 -2 -5 10
5 11 3 15 -5 10 -8 -5 -9 -2 -5 10 4 10 3 15 -3 11 -9 -6 -14 8 -11 28 0 4 -4
7 -9 7 -6 0 -10 5 -10 12 0 6 -8 20 -17 31 -13 15 -14 18 -3 13 8 -4 4 1 -9
12 -15 12 -21 24 -16 32 5 8 4 11 -3 6 -13 -8 -35 28 -24 39 4 5 2 5 -4 2 -10
-6 -25 13 -28 35 -1 3 -5 10 -10 15 -5 5 -6 2 -2 -7 4 -8 -1 -4 -12 10 -11 13
-20 29 -19 34 1 6 -3 10 -10 11 -16 0 -54 41 -46 49 4 3 -1 6 -11 6 -10 0 -14
5 -11 11 4 6 -2 13 -14 16 -11 3 -18 9 -15 14 3 5 -1 9 -9 9 -8 0 -21 8 -28
17 -12 15 -12 16 1 8 9 -5 12 -5 7 1 -5 5 -13 9 -17 9 -5 0 -16 9 -25 20 -9
11 -14 13 -10 5 4 -8 -3 -4 -15 10 -12 14 -26 25 -31 25 -4 0 -15 9 -24 20 -9
11 -14 13 -10 5 4 -10 2 -9 -8 2 -8 10 -17 15 -20 11 -4 -3 -9 2 -13 11 -3 9
-10 13 -15 11 -4 -3 -17 3 -29 15 -11 11 -22 20 -25 20 -3 0 -10 0 -16 0 -5 0
-7 5 -3 12 4 6 3 8 -4 5 -15 -10 -43 3 -35 16 4 6 0 8 -10 4 -10 -3 -17 -2
-17 4 0 6 -4 8 -9 4 -5 -3 -17 2 -25 11 -9 8 -16 12 -16 8 0 -3 -6 -1 -13 5
-8 6 -17 8 -20 4 -4 -3 -7 -1 -7 5 0 6 -7 9 -15 6 -8 -4 -15 -1 -15 5 0 6 -7
8 -15 5 -8 -4 -15 -1 -15 6 0 6 -4 9 -9 5 -5 -3 -12 -1 -16 4 -3 5 -13 10 -23
9 -9 0 -28 3 -42 7 -14 3 -32 8 -40 10 -8 2 -15 4 -15 5 0 1 -11 3 -25 5 -14
2 -43 6 -65 10 -47 9 -334 13 -341 5z"/>
</g>
</svg>
